<svg width="102" height="40" viewBox="0 0 102 40" fill="none" xmlns="http://www.w3.org/2000/svg">
<mask id="mask0_31_197" style="mask-type:luminance" maskUnits="userSpaceOnUse" x="9" y="8" width="20" height="32">
<path d="M9.57611 8.98718H28.7658V39.3396H9.57611V8.98718Z" fill="white"/>
</mask>
<g mask="url(#mask0_31_197)">
<path d="M16.1023 39.2975H20.906C18.2449 37.3485 16.3178 35.5979 14.967 33.9988H11.4579C12.4808 35.5979 13.9925 37.3564 16.1023 39.2975ZM13.4724 31.9202C12.3449 29.9713 12.1778 28.2925 12.6416 26.8058L10.4678 25.9188C9.5886 27.621 9.40432 29.5793 10.3554 31.9124H13.4724V31.9202ZM13.6083 24.9505C14.5031 23.7277 15.8227 22.6486 17.3173 21.6507L16.1179 20.6185C14.4157 21.682 12.8415 22.8407 11.6828 24.1681L13.6083 24.9505ZM19.1631 20.4826C20.3625 19.7721 21.5931 19.1005 22.7596 18.4368L21.5447 17.5342C20.4187 18.1729 19.2115 18.8132 18.0122 19.5003L19.1631 20.4826ZM24.6945 17.2859C25.8455 16.5504 26.8371 15.8148 27.4915 15.0324L26.2687 14.1844C25.5972 14.945 24.6305 15.6633 23.4796 16.3833L24.6945 17.2859ZM28.3863 13.1147C28.4753 11.9388 27.7398 10.6363 25.7893 9.12622C26.948 10.3006 27.3556 11.3469 27.2354 12.3151L28.3863 13.1147Z" fill="#001D46"/>
</g>
<mask id="mask1_31_197" style="mask-type:luminance" maskUnits="userSpaceOnUse" x="0" y="0" width="40" height="40">
<path d="M0 0.6604H39.8786V39.3396H0V0.6604Z" fill="white"/>
</mask>
<g mask="url(#mask1_31_197)">
<path d="M0.0203247 6.24021H22.1287C30.4805 6.24021 33.3992 12.7789 27.2916 18.4055C23.9668 21.4742 13.5287 24.8396 17.653 31.0503C21.2573 35.7571 28.6987 38.5072 39.9848 39.2896C6.40751 28.4361 33.6944 26.3107 37.5064 16.2708C37.6189 15.9194 37.7219 15.568 37.8031 15.2073C38.5059 12.1464 37.9624 8.90909 36.3086 6.24021C33.343 1.46778 29.4748 0.6604 24.39 0.6604H0.0203247V6.24021Z" fill="#4F51DD"/>
</g>
<mask id="mask2_31_197" style="mask-type:luminance" maskUnits="userSpaceOnUse" x="0" y="7" width="26" height="33">
<path d="M0 7.78784H25.1677V39.3396H0V7.78784Z" fill="white"/>
</mask>
<g mask="url(#mask2_31_197)">
<path d="M7.6381 39.2975C0.468521 30.2352 3.81672 22.7298 17.6765 16.7986C22.7846 14.6092 30.5367 9.29329 19.6504 8.23761L0.0203247 8.10175V39.2897H7.6381V39.2975Z" fill="#001D46"/>
</g>
<path d="M43.2329 14.7146H49.948C51.0678 14.7146 51.8798 14.9692 52.3842 15.4767C52.8918 15.9811 53.1463 16.7932 53.1463 17.9129V19.3496C53.1463 20.2366 52.998 20.9269 52.7028 21.4172C52.4108 21.9045 51.9439 22.2293 51.3036 22.3917L53.3025 25.9086H50.1854L48.3489 22.5479H46.1064V25.9086H43.2329V14.7146ZM50.2666 17.9129C50.2666 17.2726 49.9449 16.9509 49.3046 16.9509H46.1064V20.3116H49.3046C49.9449 20.3116 50.2666 19.9914 50.2666 19.3496V17.9129Z" fill="#001D46"/>
<path d="M63.0586 14.7146C64.2611 14.7146 65.1762 15.0269 65.8009 15.6516C66.4255 16.2763 66.7379 17.1914 66.7379 18.3939V22.2293C66.7379 23.4333 66.4255 24.3469 65.8009 24.9716C65.1762 25.5962 64.2611 25.9086 63.0586 25.9086H56.8245V14.7146H63.0586ZM63.8582 18.3939C63.8582 17.4319 63.3787 16.9509 62.4215 16.9509H59.6979V23.6723H62.4215C63.3787 23.6723 63.8582 23.1913 63.8582 22.2293V18.3939Z" fill="#001D46"/>
<path d="M80.167 25.9086H77.2873V21.3485H73.2895V25.9086H70.416V14.7146H73.2895V19.1122H77.2873V14.7146H80.167V25.9086Z" fill="#001D46"/>
<path d="M42.6332 31.5056H45.1506C45.5707 31.5056 45.8752 31.6024 46.0626 31.793C46.2532 31.9804 46.35 32.2849 46.35 32.705V33.2422C46.35 33.5764 46.2938 33.8341 46.1813 34.0168C46.072 34.201 45.8971 34.3229 45.6566 34.3853L46.4062 35.7034H45.2381L44.551 34.4415H43.7077V35.7034H42.6332V31.5056ZM45.2693 32.705C45.2693 32.4645 45.1475 32.3427 44.907 32.3427H43.7077V33.6045H44.907C45.1475 33.6045 45.2693 33.4842 45.2693 33.2422V32.705Z" fill="#4F51DD"/>
<path d="M50.4291 32.6425C50.4291 32.4051 50.3073 32.2864 50.0668 32.2864H49.0486C48.8065 32.2864 48.6863 32.4051 48.6863 32.6425V34.5664C48.6863 34.8038 48.8065 34.9225 49.0486 34.9225H50.0668C50.3073 34.9225 50.4291 34.8038 50.4291 34.5664V32.6425ZM51.5035 34.5664C51.5035 34.9834 51.4067 35.2879 51.2161 35.4784C51.0287 35.6705 50.7242 35.7658 50.3041 35.7658H48.8049C48.388 35.7658 48.0835 35.6705 47.8929 35.4784C47.7009 35.2879 47.6056 34.9834 47.6056 34.5664V32.6425C47.6056 32.2271 47.7009 31.9225 47.8929 31.7305C48.0835 31.5399 48.388 31.4431 48.8049 31.4431H50.3041C50.7242 31.4431 51.0287 31.5399 51.2161 31.7305C51.4067 31.9225 51.5035 32.2271 51.5035 32.6425V34.5664Z" fill="#4F51DD"/>
<path d="M53.6373 35.7034H52.463L54.0558 31.5056H55.2552L56.8418 35.7034H55.6737L55.4051 34.9538H53.9059L53.6373 35.7034ZM54.1745 34.1729H55.1365L54.6555 32.7674L54.1745 34.1729Z" fill="#4F51DD"/>
<path d="M60.2612 31.5056C60.711 31.5056 61.0514 31.6227 61.2857 31.8554C61.5231 32.0897 61.6417 32.4332 61.6417 32.8861V34.3229C61.6417 34.7773 61.5231 35.1209 61.2857 35.3535C61.0514 35.5878 60.711 35.7034 60.2612 35.7034H57.925V31.5056H60.2612ZM60.5611 32.8861C60.5611 32.5238 60.3815 32.3427 60.0239 32.3427H58.9994V34.8663H60.0239C60.3815 34.8663 60.5611 34.6852 60.5611 34.3229V32.8861Z" fill="#4F51DD"/>
<path d="M67.9371 31.5056C68.3869 31.5056 68.7273 31.6227 68.9616 31.8554C69.199 32.0897 69.3176 32.4332 69.3176 32.8861V34.3229C69.3176 34.7773 69.199 35.1209 68.9616 35.3535C68.7273 35.5878 68.3869 35.7034 67.9371 35.7034H65.6009V31.5056H67.9371ZM68.237 32.8861C68.237 32.5238 68.0574 32.3427 67.6998 32.3427H66.6753V34.8663H67.6998C68.0574 34.8663 68.237 34.6852 68.237 34.3229V32.8861Z" fill="#4F51DD"/>
<path d="M71.4477 35.7034H70.2734L71.8663 31.5056H73.0656L74.6523 35.7034H73.4841L73.2155 34.9538H71.7164L71.4477 35.7034ZM71.985 34.1729H72.9469L72.4659 32.7674L71.985 34.1729Z" fill="#4F51DD"/>
<path d="M77.7718 35.7034H76.6911V32.3427H75.4355V31.5056H79.0336V32.3427H77.7718V35.7034Z" fill="#4F51DD"/>
<path d="M80.9826 35.7034H79.8082L81.4011 31.5056H82.6005L84.1871 35.7034H83.019L82.7504 34.9538H81.2512L80.9826 35.7034ZM81.5198 34.1729H82.4818L82.0008 32.7674L81.5198 34.1729Z" fill="#4F51DD"/>
<path d="M91.5032 35.7034H90.4225V33.9918H88.9233V35.7034H87.8489V31.5056H88.9233V33.1547H90.4225V31.5056H91.5032V35.7034Z" fill="#4F51DD"/>
<path d="M95.7047 31.5056H96.7791V34.5665C96.7791 34.9834 96.6823 35.288 96.4917 35.4785C96.3043 35.6706 95.9998 35.7658 95.5797 35.7658H94.2055C93.7838 35.7658 93.4777 35.6706 93.2872 35.4785C93.0998 35.288 93.0061 34.9834 93.0061 34.5665V31.5056H94.0805V34.5665C94.0805 34.8038 94.2008 34.9225 94.4428 34.9225H95.3423C95.5828 34.9225 95.7047 34.8038 95.7047 34.5665V31.5056Z" fill="#4F51DD"/>
<path d="M98.2833 31.5056H100.682C101.072 31.5056 101.36 31.5962 101.544 31.7742C101.727 31.9491 101.819 32.2209 101.819 32.5863C101.819 32.8237 101.766 33.0173 101.663 33.1672C101.558 33.3171 101.432 33.4233 101.282 33.4858C101.602 33.5733 101.82 33.7888 101.938 34.1292C101.978 34.2541 102 34.4009 102 34.5665C102 34.9584 101.906 35.2458 101.719 35.4285C101.535 35.6128 101.247 35.7034 100.857 35.7034H98.2833V31.5056ZM100.919 34.3853C100.919 34.1448 100.798 34.023 100.557 34.023H99.3577V34.8663H100.557C100.798 34.8663 100.919 34.7461 100.919 34.504V34.3853ZM100.738 32.705C100.738 32.4645 100.62 32.3427 100.382 32.3427H99.3577V33.186H100.382C100.62 33.186 100.738 33.0657 100.738 32.8237V32.705Z" fill="#4F51DD"/>
</svg>
